<?xml version="1.0" encoding="UTF-8" standalone="no"?>
<!DOCTYPE svg PUBLIC "-//W3C//DTD SVG 1.1//EN" "http://www.w3.org/Graphics/SVG/1.1/DTD/svg11.dtd">
<svg width="100%" height="100%" viewBox="0 0 428 277" version="1.1" xmlns="http://www.w3.org/2000/svg" xmlns:xlink="http://www.w3.org/1999/xlink" xml:space="preserve" xmlns:serif="http://www.serif.com/" style="fill-rule:evenodd;clip-rule:evenodd;stroke-linecap:round;stroke-linejoin:round;stroke-miterlimit:1.5;">
    <g transform="matrix(1,0,0,1,-834.203,-340.574)">
        <g>
            <g transform="matrix(1,0,0,1,-2.45255,-92.2726)">
                <g transform="matrix(1,0,0,1,712.348,430.727)">
                    <g transform="matrix(-0.0155907,1.02026,-0.425905,-0.00650833,500.007,2.23276)">
                        <path d="M219.312,199.191C166.971,329.577 159.291,350.848 110.213,470.031L115.009,534.99L142.006,525.19C192.182,401.669 193.478,399.168 240.531,281.278L213.63,265.331L219.312,199.191Z" style="fill:rgb(80,190,151);"/>
                    </g>
                    <g transform="matrix(-1.02038,1.249e-16,-1.35308e-16,-0.425954,513.516,341.242)">
                        <path d="M209.429,225.626C155.821,353.657 153.742,358.12 109.856,463.608L106.038,527.876L133.483,538.051C186.272,410.808 186.302,410.557 244.557,275.044L217.069,289.63L209.429,225.626Z" style="fill:rgb(54,108,181);"/>
                    </g>
                    <g transform="matrix(-1.02038,1.249e-16,-1.35308e-16,-0.425954,419.219,417.398)">
                        <path d="M262.611,400.42C225.488,302.455 155.045,298.234 117.635,403.402L124.694,467.405L152.325,452.932C180.093,400.81 212.631,408.335 239.031,475.682L235.276,410.794L262.611,400.42Z" style="fill:rgb(100,78,160);"/>
                    </g>
                    <g transform="matrix(-0.104173,-1.01504,0.423729,-0.0434869,7.32614,396.879)">
                        <path d="M262.611,400.42C227.133,318.105 171.842,291.364 132.053,371.512L133.471,438.183L161.145,435.548C186.104,400.511 224.97,424.178 238.696,477.587L235.276,410.794L262.611,400.42Z" style="fill:rgb(246,140,57);"/>
                    </g>
                    <g transform="matrix(1.02038,0,8.32667e-17,0.425954,29.9225,-59.3257)">
                        <path d="M262.611,400.42C225.385,299.719 155.045,298.234 117.635,403.402L124.694,467.405L152.325,452.932C180.093,400.81 212.998,409.901 239.398,477.248L235.276,410.794L262.611,400.42Z" style="fill:rgb(4,165,166);"/>
                    </g>
                    <g transform="matrix(1.02038,-0.000133615,-5.57772e-05,-0.425954,256.512,417.746)">
                        <path d="M262.611,400.42C225.488,302.455 155.045,298.234 117.635,403.402L124.694,467.405L152.325,452.932C180.093,400.81 212.631,408.335 239.031,475.682L235.276,410.794L262.611,400.42Z" style="fill:rgb(100,78,160);"/>
                    </g>
                    <g transform="matrix(0.10404,-1.01506,-0.423734,-0.0434314,668.402,397.173)">
                        <path d="M262.611,400.42C227.133,318.105 171.842,291.364 132.053,371.512L133.471,438.183L161.145,435.548C186.104,400.511 224.97,424.178 238.696,477.587L235.276,410.794L262.611,400.42Z" style="fill:rgb(246,140,57);"/>
                    </g>
                    <g transform="matrix(-1.02038,0.000133615,5.57772e-05,0.425954,645.745,-59.0286)">
                        <path d="M262.611,400.42C225.385,299.719 155.045,298.234 117.635,403.402L124.694,467.405L152.325,452.932C180.093,400.81 212.998,409.901 239.398,477.248L235.276,410.794L262.611,400.42Z" style="fill:rgb(4,165,166);"/>
                    </g>
                </g>
                <g transform="matrix(-1,1.28163e-16,-1.18382e-16,-1,1413.24,813.387)">
                    <g transform="matrix(-0.83917,-0.543869,0.543869,-0.83917,481.166,417.206)">
                        <text x="302.27px" y="137.459px" style="font-family:'AvenirNext-Bold', 'Avenir Next', sans-serif;font-weight:700;font-size:18px;fill:white;">M</text>
                    </g>
                    <g transform="matrix(-0.937834,-0.347085,0.347085,-0.937834,509.565,345.603)">
                        <text x="285.733px" y="127.168px" style="font-family:'AvenirNext-Bold', 'Avenir Next', sans-serif;font-weight:700;font-size:18px;fill:white;">O</text>
                    </g>
                    <g transform="matrix(-0.988333,-0.15231,0.15231,-0.988333,516.641,282.237)">
                        <text x="269.131px" y="121.331px" style="font-family:'AvenirNext-Bold', 'Avenir Next', sans-serif;font-weight:700;font-size:18px;fill:white;">N</text>
                    </g>
                    <g transform="matrix(-0.99996,-0.00893522,0.00893522,-0.99996,504.494,240.826)">
                        <text x="252.785px" y="119.286px" style="font-family:'AvenirNext-Bold', 'Avenir Next', sans-serif;font-weight:700;font-size:18px;fill:white;">I</text>
                    </g>
                    <g transform="matrix(-0.993674,0.112303,-0.112303,-0.993674,501.467,210.167)">
                        <text x="244.814px" y="119.207px" style="font-family:'AvenirNext-Bold', 'Avenir Next', sans-serif;font-weight:700;font-size:18px;fill:white;">T</text>
                    </g>
                    <g transform="matrix(-0.95785,0.287269,-0.287269,-0.95785,489.162,169.475)">
                        <text x="232.148px" y="120.624px" style="font-family:'AvenirNext-Bold', 'Avenir Next', sans-serif;font-weight:700;font-size:18px;fill:white;">O</text>
                    </g>
                    <g transform="matrix(-0.883527,0.46838,-0.46838,-0.883527,464.666,136.468)">
                        <text x="215.365px" y="126.009px" style="font-family:'AvenirNext-Bold', 'Avenir Next', sans-serif;font-weight:700;font-size:18px;fill:white;">R</text>
                    </g>
                </g>
                <g transform="matrix(-1,1.29504e-16,-1.29589e-16,-1,1396.65,799.663)">
                    <g transform="matrix(-0.339599,-0.94057,0.94057,-0.339599,21.6011,457.356)">
                        <text x="171.362px" y="221.094px" style="font-family:'AvenirNext-Bold', 'Avenir Next', sans-serif;font-weight:700;font-size:18px;fill:white;">O</text>
                    </g>
                    <g transform="matrix(-0.149542,-0.988755,0.988755,-0.149542,-13.1146,401.914)">
                        <text x="166.292px" y="206.597px" style="font-family:'AvenirNext-Bold', 'Avenir Next', sans-serif;font-weight:700;font-size:18px;fill:white;">P</text>
                    </g>
                    <g transform="matrix(0.00708295,-0.999975,0.999975,0.00708295,-31.8185,358.348)">
                        <text x="164.538px" y="195.196px" style="font-family:'AvenirNext-Bold', 'Avenir Next', sans-serif;font-weight:700;font-size:18px;fill:white;">E</text>
                    </g>
                    <g transform="matrix(0.171741,-0.985142,0.985142,0.171741,-45.2261,314.643)">
                        <text x="164.507px" y="184.218px" style="font-family:'AvenirNext-Bold', 'Avenir Next', sans-serif;font-weight:700;font-size:18px;fill:white;">R</text>
                    </g>
                    <g transform="matrix(0.33601,-0.941859,0.941859,0.33601,-51.8603,271.27)">
                        <text x="166.466px" y="172.417px" style="font-family:'AvenirNext-Bold', 'Avenir Next', sans-serif;font-weight:700;font-size:18px;fill:white;">A</text>
                    </g>
                    <g transform="matrix(0.475693,-0.879611,0.879611,0.475693,-52.2659,234.454)">
                        <text x="170.535px" y="161.07px" style="font-family:'AvenirNext-Bold', 'Avenir Next', sans-serif;font-weight:700;font-size:18px;fill:white;">T</text>
                    </g>
                    <g transform="matrix(0.607238,-0.79452,0.79452,0.607238,-51.7097,199.061)">
                        <text x="175.486px" y="151.833px" style="font-family:'AvenirNext-Bold', 'Avenir Next', sans-serif;font-weight:700;font-size:18px;fill:white;">E</text>
                    </g>
                </g>
                <g transform="matrix(1,0,0,1,682.813,406.096)">
                    <g id="TEST">
                        <g transform="matrix(0.986128,0.165985,-0.165985,0.986128,50.6428,-34.187)">
                            <text x="229.857px" y="285.894px" style="font-family:'AvenirNext-Bold', 'Avenir Next', sans-serif;font-weight:700;font-size:18px;fill:white;">T</text>
                        </g>
                        <g transform="matrix(0.999933,0.0115413,-0.0115413,0.999933,3.33855,-2.77865)">
                            <text x="242.419px" y="287.872px" style="font-family:'AvenirNext-Bold', 'Avenir Next', sans-serif;font-weight:700;font-size:18px;fill:white;">E</text>
                        </g>
                        <g transform="matrix(0.990807,-0.135286,0.135286,0.990807,-36.5928,37.2266)">
                            <text x="255.609px" y="287.856px" style="font-family:'AvenirNext-Bold', 'Avenir Next', sans-serif;font-weight:700;font-size:18px;fill:white;">S</text>
                        </g>
                        <g transform="matrix(0.958716,-0.284366,0.284366,0.958716,-70.2288,88.1123)">
                            <text x="268.344px" y="285.924px" style="font-family:'AvenirNext-Bold', 'Avenir Next', sans-serif;font-weight:700;font-size:18px;fill:white;">T</text>
                        </g>
                    </g>
                </g>
                <g transform="matrix(-1,1.29504e-16,-1.29589e-16,-1,1396.65,799.663)">
                    <g transform="matrix(-0.937037,0.34923,-0.34923,-0.937037,605.843,397.786)">
                        <text x="267.063px" y="253.507px" style="font-family:'AvenirNext-Bold', 'Avenir Next', sans-serif;font-weight:700;font-size:18px;fill:white;">D</text>
                    </g>
                    <g transform="matrix(-0.983529,0.180748,-0.180748,-0.983529,550.453,466.436)">
                        <text x="253.975px" y="258.298px" style="font-family:'AvenirNext-Bold', 'Avenir Next', sans-serif;font-weight:700;font-size:18px;fill:white;">E</text>
                    </g>
                    <g transform="matrix(-0.999734,0.0230817,-0.0230817,-0.999734,492.352,515.023)">
                        <text x="243.204px" y="260.353px" style="font-family:'AvenirNext-Bold', 'Avenir Next', sans-serif;font-weight:700;font-size:18px;fill:white;">P</text>
                    </g>
                    <g transform="matrix(-0.99198,-0.126394,0.126394,-0.99198,428.536,548.421)">
                        <text x="231.667px" y="260.615px" style="font-family:'AvenirNext-Bold', 'Avenir Next', sans-serif;font-weight:700;font-size:18px;fill:white;">L</text>
                    </g>
                    <g transform="matrix(-0.959679,-0.281098,0.281098,-0.959679,363.452,571.731)">
                        <text x="222.731px" y="259.798px" style="font-family:'AvenirNext-Bold', 'Avenir Next', sans-serif;font-weight:700;font-size:18px;fill:white;">O</text>
                    </g>
                    <g transform="matrix(-0.891375,-0.453267,0.453267,-0.891375,278.69,577.894)">
                        <text x="208.591px" y="255.553px" style="font-family:'AvenirNext-Bold', 'Avenir Next', sans-serif;font-weight:700;font-size:18px;fill:white;">Y</text>
                    </g>
                </g>
                <g transform="matrix(1,0,0,1,699.402,419.82)">
                    <g id="BUILD">
                        <g transform="matrix(-0.405679,-0.914016,0.914016,-0.405679,38.4437,473.51)">
                            <text x="173.167px" y="224.256px" style="font-family:'AvenirNext-Bold', 'Avenir Next', sans-serif;font-weight:700;font-size:18px;fill:white;">B</text>
                        </g>
                        <g transform="matrix(-0.239462,-0.970906,0.970906,-0.239462,1.39628,427.728)">
                            <text x="168.224px" y="213.317px" style="font-family:'AvenirNext-Bold', 'Avenir Next', sans-serif;font-weight:700;font-size:18px;fill:white;">U</text>
                        </g>
                        <g transform="matrix(-0.106875,-0.994272,0.994272,-0.106875,-16.2479,386.103)">
                            <text x="165.289px" y="200.349px" style="font-family:'AvenirNext-Bold', 'Avenir Next', sans-serif;font-weight:700;font-size:18px;fill:white;">I</text>
                        </g>
                        <g transform="matrix(0.00857408,-0.999963,0.999963,0.00857408,-31.528,357.518)">
                            <text x="164.534px" y="194.659px" style="font-family:'AvenirNext-Bold', 'Avenir Next', sans-serif;font-weight:700;font-size:18px;fill:white;">L</text>
                        </g>
                        <g transform="matrix(0.168784,-0.985653,0.985653,0.168784,-45.8772,315.913)">
                            <text x="164.366px" y="185.157px" style="font-family:'AvenirNext-Bold', 'Avenir Next', sans-serif;font-weight:700;font-size:18px;fill:white;">D</text>
                        </g>
                    </g>
                </g>
                <g transform="matrix(1,0,0,1,699.402,419.82)">
                    <g id="CODE">
                        <g transform="matrix(0.963316,-0.26837,0.26837,0.963316,-25.4777,60.8854)">
                            <text x="209.97px" y="123.636px" style="font-family:'AvenirNext-Bold', 'Avenir Next', sans-serif;font-weight:700;font-size:18px;fill:white;">C</text>
                        </g>
                        <g transform="matrix(0.996521,-0.0833422,0.0833422,0.996521,-9.24118,18.9069)">
                            <text x="221.843px" y="120.143px" style="font-family:'AvenirNext-Bold', 'Avenir Next', sans-serif;font-weight:700;font-size:18px;fill:white;">O</text>
                        </g>
                        <g transform="matrix(0.992074,0.125652,-0.125652,0.992074,16.8206,-28.8555)">
                            <text x="237.146px" y="118.908px" style="font-family:'AvenirNext-Bold', 'Avenir Next', sans-serif;font-weight:700;font-size:18px;fill:white;">D</text>
                        </g>
                        <g transform="matrix(0.954973,0.296692,-0.296692,0.954973,47.1223,-69.023)">
                            <text x="250.965px" y="120.738px" style="font-family:'AvenirNext-Bold', 'Avenir Next', sans-serif;font-weight:700;font-size:18px;fill:white;">E</text>
                        </g>
                    </g>
                </g>
                <g transform="matrix(0.732089,0.681209,-0.681209,0.732089,964.96,-60.1539)">
                    <text x="444.917px" y="435.866px" style="font-family:'AvenirNext-Bold', 'Avenir Next', sans-serif;font-weight:700;font-size:18px;fill:white;">PLAN</text>
                </g>
                <g transform="matrix(0.703223,-0.71097,0.71097,0.703223,448.227,636.009)">
                    <text x="405.801px" y="414.598px" style="font-family:'AvenirNext-Bold', 'Avenir Next', sans-serif;font-weight:700;font-size:18px;fill:white;">RELEASE</text>
                </g>
            </g>
            <g transform="matrix(1,0,0,1,613.675,200.293)">
                <g transform="matrix(0.843615,0,0,0.843615,67.8819,34.1465)">
                    <path d="M453.496,174.736L414.635,174.576C413.349,183.453 407.255,187.641 398.323,189.062C398.301,223.974 408.107,254.061 434.281,262.123C460.14,253.855 471.048,222.119 469.708,189.178C461.015,188.877 455.567,184.467 453.496,174.736Z" style="fill:none;stroke:black;stroke-width:1.19px;"/>
                </g>
                <path d="M453.496,174.736L414.635,174.576C413.349,183.453 407.255,187.641 398.323,189.062C398.301,223.974 408.107,254.061 434.281,262.123C460.14,253.855 471.048,222.119 469.708,189.178C461.015,188.877 455.567,184.467 453.496,174.736Z" style="fill:none;stroke:black;stroke-width:1px;"/>
                <g transform="matrix(1,0,0,1,-0.930477,-0.493876)">
                    <circle cx="435.094" cy="188.048" r="1.56"/>
                </g>
                <g transform="matrix(1,0,0,1,-0.930477,59.6024)">
                    <circle cx="435.094" cy="188.048" r="1.56"/>
                </g>
                <g transform="matrix(1,0,0,1,9.55445,-0.493876)">
                    <circle cx="435.094" cy="188.048" r="1.56"/>
                </g>
                <g transform="matrix(1,0,0,1,-11.1095,-0.493876)">
                    <circle cx="435.094" cy="188.048" r="1.56"/>
                </g>
                <g transform="matrix(1,0,0,1,-23.5666,10.747)">
                    <circle cx="435.094" cy="188.048" r="1.56"/>
                </g>
                <g transform="matrix(1,0,0,1,-22.4917,25.8399)">
                    <circle cx="435.094" cy="188.048" r="1.56"/>
                </g>
                <g transform="matrix(1,0,0,1,20.7332,25.8399)">
                    <circle cx="435.094" cy="188.048" r="1.56"/>
                </g>
                <g transform="matrix(1,0,0,1,-18.9109,39.4125)">
                    <circle cx="435.094" cy="188.048" r="1.56"/>
                </g>
                <g transform="matrix(1,0,0,1,17.3146,39.4125)">
                    <circle cx="435.094" cy="188.048" r="1.56"/>
                </g>
                <g transform="matrix(1,0,0,1,-12.1825,51.7231)">
                    <circle cx="435.094" cy="188.048" r="1.56"/>
                </g>
                <g transform="matrix(1,0,0,1,10.5403,51.7231)">
                    <circle cx="435.094" cy="188.048" r="1.56"/>
                </g>
                <g transform="matrix(1,0,0,1,21.9044,10.747)">
                    <circle cx="435.094" cy="188.048" r="1.56"/>
                </g>
            </g>
            <g transform="matrix(1,0,0,1,611.079,230.17)">
                <text x="408.031px" y="132.215px" style="font-family:'AvenirNext-Bold', 'Avenir Next', sans-serif;font-weight:700;font-size:30px;">SEC</text>
            </g>
        </g>
    </g>
</svg>
