<?xml version="1.0" encoding="UTF-8" standalone="no"?>
<!DOCTYPE svg PUBLIC "-//W3C//DTD SVG 1.1//EN" "http://www.w3.org/Graphics/SVG/1.1/DTD/svg11.dtd">
<svg width="100%" height="100%" viewBox="0 0 2051 2051" version="1.1" xmlns="http://www.w3.org/2000/svg" xmlns:xlink="http://www.w3.org/1999/xlink" xml:space="preserve" xmlns:serif="http://www.serif.com/" style="fill-rule:evenodd;clip-rule:evenodd;stroke-linejoin:round;stroke-miterlimit:2;">
    <g transform="matrix(4.16667,0,0,4.16667,-63.6139,-166.394)">
        <g transform="matrix(1,0,0,1,110.032,-3.86088)">
            <g id="Body" transform="matrix(1,0,0,1,-483.914,-32.0716)">
                <path d="M536.224,253.485C610.348,317.061 676.423,309.646 735.626,251.35C718.606,241.024 707.005,223.799 704.659,194.721L702.007,119.748C694.077,102.18 681.017,94.685 662.768,93.869C662.045,84.369 656.658,76.689 646.323,76.048C646.323,76.048 619.961,76.065 619.642,76.116C585.395,81.594 569.907,111.895 568.467,127.381L567.232,194.82C564.36,220.215 552.964,238.941 536.224,253.485Z" style="fill:rgb(110,131,183);"/>
                <g transform="matrix(1,0,0,1,-1,-1)">
                    <path d="M576.596,156.84L566.167,157.096C561.202,157.235 559.025,159.876 558.757,164.231L558.796,188.002C560.184,191.736 563.579,193.807 567.031,195.069L576.382,195.077L576.596,156.84Z" style="fill:rgb(255,211,179);"/>
                </g>
                <g transform="matrix(-1,0,0,1,1272.15,-1)">
                    <path d="M576.596,156.84L566.167,157.096C561.202,157.235 559.025,159.876 558.757,164.231L558.796,188.002C560.184,191.736 563.579,193.807 567.031,195.069L576.382,195.077L576.596,156.84Z" style="fill:rgb(255,211,179);"/>
                </g>
                <path d="M605.534,249.233L665.246,249.233L665.246,279.625C693.726,285.957 721.876,293.023 747.705,303.46C764.213,313.161 773.487,329.291 776.969,345.334L776.834,515.815C776.646,536.347 738.379,542.994 724.76,543.642L554.45,543.057C538.887,542.381 494.19,545.002 493.348,513.013L493.612,349.921C495.306,331.855 504.095,314.455 525.856,302.364C537.134,296.926 571.258,288.391 605.579,279.829L605.534,249.233Z" style="fill:rgb(255,211,179);"/>
                <path d="M586.452,284.609C592.745,345.057 678.526,343.666 685.297,284.362C713.777,290.694 721.876,293.023 747.705,303.46C764.213,313.161 773.487,329.291 776.969,345.334L776.917,411.386L493.348,411.386L493.612,349.921C495.306,331.855 504.095,314.455 525.856,302.364C537.134,296.926 552.131,293.171 586.452,284.609Z" style="fill:rgb(255,176,170);"/>
                <g transform="matrix(1,0,0,0.533587,0,191.998)">
                    <rect x="493.506" y="411.649" width="283.644" height="38.501" style="fill:rgb(237,239,241);"/>
                </g>
                <path d="M586.422,284.623C592.716,345.072 678.527,343.569 685.298,284.265C694.676,286.347 696.105,286.592 704.936,288.933C687.914,366.222 584.17,371.08 565.558,289.895C573.223,287.819 578.279,286.757 586.422,284.623Z" style="fill:rgb(237,239,241);"/>
                <path d="M665.238,265.706C644,274.182 626.251,274.28 605.548,265.974C605.577,260.359 605.574,259.382 605.533,250.069C631.45,253.749 644.968,253.054 665.258,250.539C665.203,258.753 665.238,265.706 665.238,265.706Z" style="fill:rgb(252,185,139);"/>
                <path d="M663.003,146.229C649.951,160.495 638.083,155.051 609.287,156.624C573.12,166.143 561.258,215.435 600.487,246.599C621.362,260.896 644.396,261.976 669.763,248.771C697.659,234.249 703.112,177.049 674.34,157.006C671.678,155.152 665.918,151.342 663.003,146.229Z" style="fill:rgb(255,211,179);"/>
            </g>
            <g id="Laptop" transform="matrix(1,0,0,1,-484.2,-32.0716)">
                <g transform="matrix(0.993228,0,0,1,3.62671,0)">
                    <rect x="535.535" y="398.03" width="200.961" height="139.727" style="fill:rgb(110,131,183);"/>
                </g>
                <g transform="matrix(1,0,0,1,0.17499,0.536378)">
                    <circle cx="635.16" cy="467.357" r="20.505" style="fill:rgb(70,96,137);"/>
                </g>
                <g transform="matrix(1.00438,0,0,1,-2.8863,0)">
                    <rect x="525.955" y="537.844" width="219.363" height="30.224" style="fill:rgb(70,96,137);"/>
                </g>
            </g>
            <g id="Code" transform="matrix(1,0,0,1,-483.914,-32.0716)">
                <path d="M880.59,75.867L726.151,75.867L726.151,205.607L747.28,205.607L747.758,236.539L787.1,205.607L880.59,205.607L880.59,75.867Z" style="fill:rgb(237,239,241);"/>
                <g transform="matrix(1,0,0,1,0,0.209649)">
                    <g transform="matrix(0.619488,0.619488,-0.717989,0.717989,373.47,-443.385)">
                        <rect x="766.235" y="110.433" width="14.438" height="41.488" style="fill:rgb(110,131,183);"/>
                    </g>
                    <g transform="matrix(0.619488,-0.619488,0.717989,0.717989,185.116,535.765)">
                        <rect x="766.235" y="110.433" width="14.438" height="41.488" style="fill:rgb(110,131,183);"/>
                    </g>
                </g>
                <g transform="matrix(-1,-1.22465e-16,1.22465e-16,-1,1606.7,280.957)">
                    <g transform="matrix(0.619488,0.619488,-0.717989,0.717989,373.47,-443.385)">
                        <rect x="766.235" y="110.433" width="14.438" height="41.488" style="fill:rgb(110,131,183);"/>
                    </g>
                    <g transform="matrix(0.619488,-0.619488,0.717989,0.717989,185.116,535.765)">
                        <rect x="766.235" y="110.433" width="14.438" height="41.488" style="fill:rgb(110,131,183);"/>
                    </g>
                </g>
                <g transform="matrix(1.09721,0.293998,-0.258819,0.965926,-42.7586,-232.666)">
                    <rect x="799.389" y="98.779" width="10.794" height="85.371" style="fill:rgb(110,131,183);"/>
                </g>
            </g>
            <g id="Background" transform="matrix(2.34222,0,0,1.64574,-2328.28,-113.284)">
                <rect x="953.586" y="95.446" width="210.142" height="299.075" style="fill:none;"/>
            </g>
        </g>
    </g>
</svg>
